<?xml version="1.0" encoding="UTF-8" standalone="no"?>
<!DOCTYPE svg PUBLIC "-//W3C//DTD SVG 1.1//EN" "http://www.w3.org/Graphics/SVG/1.1/DTD/svg11.dtd">
<svg width="100%" height="100%" viewBox="0 0 695 222" version="1.1" xmlns="http://www.w3.org/2000/svg" xmlns:xlink="http://www.w3.org/1999/xlink" xml:space="preserve" xmlns:serif="http://www.serif.com/" style="fill-rule:evenodd;clip-rule:evenodd;stroke-linejoin:round;stroke-miterlimit:2;">
    <g transform="matrix(1,0,0,1,-1162.09,-303.367)">
        <g transform="matrix(1.50849,0,0,1.50849,1162.09,339.013)">
            <path d="M72.52,67.74C75.04,72.84 76.46,78.58 76.46,84.66C76.46,94.11 73.03,102.77 67.34,109.44L58.7,100.8C62.21,96.36 64.3,90.75 64.3,84.65C64.3,70.25 52.63,58.58 38.23,58.58C32.13,58.58 26.52,60.67 22.08,64.18L13.45,55.55C18.77,51.01 25.36,47.91 32.61,46.84L32.48,46.78L49.66,27.99L39.18,21.52L27.05,33.07C24.19,35.79 19.67,35.68 16.95,32.82C14.23,29.96 14.34,25.44 17.2,22.72L33.3,7.39L33.29,7.38C35.85,4.94 39.77,4.77 42.51,6.82L65.14,20.78C65.44,20.97 65.73,21.17 66,21.4L72.3,24.75C79.12,28.38 79.69,34.75 74.54,40.5L62.5,53.94L88.16,52.34L88.16,52.33C92.1,52.08 95.5,55.09 95.75,59.03C95.76,59.18 95.77,59.34 95.77,59.49C95.77,59.79 95.75,60.08 95.71,60.38L93.03,98.34C92.75,102.28 89.33,105.24 85.39,104.97C81.45,104.69 78.48,101.27 78.76,97.33L80.89,67.12L72.52,67.74ZM79.5,0C86.18,0 91.6,5.41 91.6,12.1C91.6,18.78 86.18,24.2 79.5,24.2C72.82,24.2 67.4,18.78 67.4,12.1C67.4,5.41 72.82,0 79.5,0ZM59.29,116.56C53.25,120.55 46.01,122.88 38.23,122.88C17.11,122.88 0,105.77 0,84.65C0,76.87 2.33,69.63 6.32,63.59L15.18,72.45C13.25,76.09 12.15,80.24 12.15,84.65C12.15,99.05 23.82,110.72 38.22,110.72C42.63,110.72 46.78,109.62 50.42,107.69L59.29,116.56Z" style="fill:rgb(122,234,207);"/>
        </g>
        <g transform="matrix(0.223313,0,0,0.223313,1292.07,293.992)">
            <path id="path2558" d="M302.075,1018.99C286.256,1013.8 273.727,1002.12 270.149,989.236C268.723,984.102 268.043,879.056 268.036,662.577L268.025,343.487L251.995,343.487L251.995,463.938C251.995,582.017 251.913,584.531 247.852,591.674C242.591,600.925 236.683,605.26 225.121,608.352C208.027,612.924 189.333,604.194 182.62,588.505C178.301,578.41 178.582,309.166 182.93,292.476C192.729,254.854 224.462,224.033 261.473,216.19C280.969,212.059 461.223,212.008 480.662,216.128C500.462,220.325 517.469,229.818 532.517,245.074C547.995,260.766 555.22,273.495 560.61,294.567C564.366,309.255 564.573,317.121 564.573,445.059C564.573,562.009 564.161,581.039 561.491,587.429C557.34,597.365 553.068,601.834 543.534,606.212C527.714,613.476 507.607,608.803 498.253,595.687C498.253,595.687 495.353,590.096 495.238,587.337C494.346,565.758 492.896,466.214 492.896,466.214L492.35,343.487L476.41,343.487L476.41,664.144C476.41,1015.64 477.205,992.306 464.783,1005.39C454.969,1015.73 444.962,1019.64 428.321,1019.64C411.68,1019.64 401.673,1015.73 391.86,1005.39C379.679,992.56 380.232,1002.51 380.232,796.389L380.232,607.976L364.203,607.976L364.203,796.389C364.203,949.933 363.703,985.995 361.501,991.25C357.464,1000.88 348.682,1010.38 339.464,1015.08C330.579,1019.62 310.408,1021.72 302.075,1018.99L302.075,1018.99Z" style="fill:rgb(137,210,216);fill-rule:nonzero;"/>
        </g>
        <g transform="matrix(0.223313,0,0,0.223313,1292.07,293.992)">
            <path id="path5075" d="M449.726,117.723L449.726,117.747C449.726,159.297 414.586,193.488 371.882,193.488C329.177,193.488 294.037,159.297 294.037,117.747L294.037,117.723C294.037,76.173 329.177,41.982 371.882,41.982C414.586,41.982 449.726,76.173 449.726,117.723Z" style="fill:rgb(137,210,216);"/>
        </g>
        <g transform="matrix(0.223313,0,0,0.223313,1292.07,293.992)">
            <g id="path50751" serif:id="path5075" transform="matrix(1,0,0,1,1932.36,0)">
                <path d="M449.726,117.723L449.726,117.747C449.726,159.297 414.586,193.488 371.882,193.488C329.177,193.488 294.037,159.297 294.037,117.747L294.037,117.723C294.037,76.173 329.177,41.982 371.882,41.982C414.586,41.982 449.726,76.173 449.726,117.723Z" style="fill:rgb(246,175,214);"/>
            </g>
        </g>
        <g transform="matrix(0.455687,0,0,0.455687,1265.22,203.202)">
            <g transform="matrix(0.970107,0,0,0.988218,725.646,8.75596)">
                <path d="M383.074,542.235L428.3,542.235L428.805,683.404C428.805,683.404 431.903,698.583 448.867,698.672C467.796,698.767 470.957,683.404 470.957,683.404L471.002,541.232L482.069,541.225L482.069,683.404C482.069,683.404 486.583,698.672 503.458,698.672C521.048,698.67 524.979,683.404 524.979,683.404L524.787,542.488L570.204,542.109L515.783,354.473L525,354.221L557.956,463.948C557.956,463.948 565.84,479.208 579.271,473.191C592.724,467.164 589.271,453.089 589.271,453.089L552.04,329.255C552.04,329.255 545.027,315.43 535.336,308.39C525.645,301.351 511.489,297.526 511.489,297.526L442.546,297.778C442.546,297.778 428.386,300.5 418.6,307.508C408.814,314.516 401.793,329.316 401.793,329.316L363.999,451.337C363.999,451.337 361.307,467.645 376.129,472.69C391.979,478.128 396.829,461.186 396.829,461.186L428.404,354.599L436.233,354.599L383.074,542.235Z" style="fill:rgb(246,175,214);"/>
            </g>
        </g>
        <g transform="matrix(0.455687,0,0,0.455687,1265.22,203.202)">
            <g id="path50752" serif:id="path5075" transform="matrix(0.490057,0,0,0.490057,770.743,199.237)">
                <path d="M449.726,117.723L449.726,117.747C449.726,159.297 414.586,193.488 371.882,193.488C329.177,193.488 294.037,159.297 294.037,117.747L294.037,117.723C294.037,76.173 329.177,41.982 371.882,41.982C414.586,41.982 449.726,76.173 449.726,117.723Z" style="fill:rgb(195,146,194);"/>
            </g>
        </g>
        <g transform="matrix(0.455687,0,0,0.455687,1265.22,203.202)">
            <g transform="matrix(0.970107,0,0,0.988218,490.499,8.75596)">
                <path d="M389.86,542.235L428.3,542.235L428.805,683.404C428.805,683.404 431.903,698.583 448.867,698.672C467.796,698.767 470.957,683.404 470.957,683.404L471.002,541.232L482.069,541.225L482.069,683.404C482.069,683.404 486.583,698.672 503.458,698.672C521.048,698.67 524.979,683.404 524.979,683.404L524.787,542.488L563.418,542.109L522.569,354.473L531.786,354.22L557.956,466.169C557.956,466.169 565.84,481.429 579.271,475.412C592.724,469.385 589.271,455.31 589.271,455.31L558.826,329.255C558.826,329.255 551.813,315.43 542.122,308.39C532.431,301.351 518.276,297.526 518.276,297.526L435.76,297.778C435.76,297.778 421.599,300.5 411.813,307.508C402.028,314.516 395.007,329.316 395.007,329.316L363.999,453.557C363.999,453.557 361.307,469.866 376.129,474.91C391.979,480.348 396.829,463.406 396.829,463.406L421.618,354.599L429.447,354.599L389.86,542.235Z" style="fill:rgb(195,146,194);"/>
            </g>
        </g>
        <g transform="matrix(0.455687,0,0,0.455687,1265.22,203.202)">
            <g id="path50753" serif:id="path5075" transform="matrix(0.490057,0,0,0.490057,532.073,199.236)">
                <path d="M449.726,117.723L449.726,117.747C449.726,159.297 414.586,193.488 371.882,193.488C329.177,193.488 294.037,159.297 294.037,117.747L294.037,117.723C294.037,76.173 329.177,41.982 371.882,41.982C414.586,41.982 449.726,76.173 449.726,117.723Z" style="fill:rgb(161,139,208);"/>
            </g>
        </g>
        <g transform="matrix(0.455687,0,0,0.455687,1265.22,203.202)">
            <g transform="matrix(0.970107,0,0,0.988218,251.829,8.75553)">
                <path d="M398.908,542.235L428.3,542.235L428.805,683.404C428.805,683.404 431.903,698.583 448.867,698.672C467.796,698.767 470.957,683.404 470.957,683.404L471.002,541.232L482.069,541.225L482.069,683.404C482.069,683.404 486.583,698.672 503.458,698.672C521.048,698.67 524.979,683.404 524.979,683.404L524.787,542.488L552.108,542.109L524.831,354.473L534.049,354.22L557.956,472.831C557.956,472.831 565.84,488.091 579.271,482.074C592.724,476.047 589.271,461.972 589.271,461.972L561.088,329.255C561.088,329.255 554.076,315.43 544.384,308.39C534.693,301.351 520.538,297.526 520.538,297.526L433.498,297.778C433.498,297.778 419.337,300.5 409.551,307.508C399.765,314.516 392.745,329.316 392.745,329.316L363.999,460.219C363.999,460.219 361.307,476.528 376.129,481.572C391.979,487.01 396.829,470.068 396.829,470.068L419.356,354.599L427.185,354.599L398.908,542.235Z" style="fill:rgb(161,139,208);"/>
            </g>
        </g>
        <g transform="matrix(0.455687,0,0,0.455687,1265.22,203.202)">
            <g id="path50754" serif:id="path5075" transform="matrix(0.490057,0,0,0.490057,292.074,199.237)">
                <path d="M449.726,117.723L449.726,117.747C449.726,159.297 414.586,193.488 371.882,193.488C329.177,193.488 294.037,159.297 294.037,117.747L294.037,117.723C294.037,76.173 329.177,41.982 371.882,41.982C414.586,41.982 449.726,76.173 449.726,117.723Z" style="fill:rgb(127,168,201);"/>
            </g>
        </g>
        <g transform="matrix(0.455687,0,0,0.455687,1265.22,203.202)">
            <g transform="matrix(0.970107,0,0,0.988218,11.8303,8.75596)">
                <path d="M407.957,542.235L428.3,542.235L428.805,683.404C428.805,683.404 431.903,698.583 448.867,698.672C467.796,698.767 470.957,683.404 470.957,683.404L471.002,541.232L482.069,541.225L482.069,683.404C482.069,683.404 486.583,698.672 503.458,698.672C521.048,698.67 524.979,683.404 524.979,683.404L524.787,542.488L543.059,542.109L531.617,354.473L540.835,354.22L557.956,477.272C557.956,477.272 565.84,492.532 579.271,486.515C592.724,480.488 589.271,466.413 589.271,466.413L567.874,329.255C567.874,329.255 560.862,315.43 551.171,308.39C541.48,301.351 527.324,297.526 527.324,297.526L426.712,297.778C426.712,297.778 412.551,300.5 402.765,307.508C392.979,314.516 385.958,329.316 385.958,329.316L363.999,464.661C363.999,464.661 361.307,480.969 376.129,486.014C391.979,491.452 396.829,474.51 396.829,474.51L412.57,354.599L420.398,354.599L407.957,542.235Z" style="fill:rgb(127,168,201);"/>
            </g>
        </g>
    </g>
</svg>