<?xml version="1.0" encoding="UTF-8" standalone="no"?>
<!DOCTYPE svg PUBLIC "-//W3C//DTD SVG 1.1//EN" "http://www.w3.org/Graphics/SVG/1.1/DTD/svg11.dtd">
<svg width="100%" height="100%" viewBox="0 0 250 250" version="1.1" xmlns="http://www.w3.org/2000/svg" xmlns:xlink="http://www.w3.org/1999/xlink" xml:space="preserve" xmlns:serif="http://www.serif.com/" style="fill-rule:evenodd;clip-rule:evenodd;stroke-linejoin:round;stroke-miterlimit:2;">
    <g transform="matrix(1,0,0,1,-1078.71,-32.939)">
        <g transform="matrix(1.01879,0,0,1.15434,-40.3257,-0.806377)">
            <rect x="1098.39" y="29.233" width="245.388" height="216.574" style="fill:white;fill-opacity:0;"/>
        </g>
        <g transform="matrix(2.03451,0,0,2.03451,1106.28,32.939)">
            <path d="M72.52,67.74C75.04,72.84 76.46,78.58 76.46,84.66C76.46,94.11 73.03,102.77 67.34,109.44L58.7,100.8C62.21,96.36 64.3,90.75 64.3,84.65C64.3,70.25 52.63,58.58 38.23,58.58C32.13,58.58 26.52,60.67 22.08,64.18L13.45,55.55C18.77,51.01 25.36,47.91 32.61,46.84L32.48,46.78L49.66,27.99L39.18,21.52L27.05,33.07C24.19,35.79 19.67,35.68 16.95,32.82C14.23,29.96 14.34,25.44 17.2,22.72L33.3,7.39L33.29,7.38C35.85,4.94 39.77,4.77 42.51,6.82L65.14,20.78C65.44,20.97 65.73,21.17 66,21.4L72.3,24.75C79.12,28.38 79.69,34.75 74.54,40.5L62.5,53.94L88.16,52.34L88.16,52.33C92.1,52.08 95.5,55.09 95.75,59.03C95.76,59.18 95.77,59.34 95.77,59.49C95.77,59.79 95.75,60.08 95.71,60.38L93.03,98.34C92.75,102.28 89.33,105.24 85.39,104.97C81.45,104.69 78.48,101.27 78.76,97.33L80.89,67.12L72.52,67.74ZM79.5,0C86.18,0 91.6,5.41 91.6,12.1C91.6,18.78 86.18,24.2 79.5,24.2C72.82,24.2 67.4,18.78 67.4,12.1C67.4,5.41 72.82,0 79.5,0ZM59.29,116.56C53.25,120.55 46.01,122.88 38.23,122.88C17.11,122.88 0,105.77 0,84.65C0,76.87 2.33,69.63 6.32,63.59L15.18,72.45C13.25,76.09 12.15,80.24 12.15,84.65C12.15,99.05 23.82,110.72 38.22,110.72C42.63,110.72 46.78,109.62 50.42,107.69L59.29,116.56Z" style="fill:rgb(86,72,117);"/>
        </g>
    </g>
</svg>
